<svg viewBox="-60 -140 1420 1270" role="img" aria-label="Meduco simulator component diagram: the academia UI drives a vertical pipeline (access guard, session engine, answer grader, SM-2, analytics) inside the PHP API; question bank and daily challenge are feeder services; all persist to the sim_ tables in MySQL">
<defs><marker id="ah" viewBox="0 0 10 10" refX="8" refY="5" markerWidth="7" markerHeight="7" orient="auto-start-reverse"><path d="M0.5,0.8 L9,5 L0.5,9.2" fill="none" stroke-width="1.7" stroke-linecap="round" stroke-linejoin="round"/></marker></defs>
<text class="h" x="40" y="44" font-size="24" text-anchor="start">Meduco: the Simulator (component diagram)</text>
<text class="mut" x="42" y="70" font-size="14" text-anchor="start">C4 level 3 · inside the PHP API's SimulatorController + the academia UI</text>
<g transform="rotate(-0.4 560 162)"><rect class="bx dev" x="430" y="110" width="260" height="104" rx="10"/></g>
<text class="t" x="448" y="142" font-size="20" text-anchor="start">Simulador.jsx</text>
<text class="a-dev" x="448" y="164" font-size="13.5" text-anchor="start">React page (student)</text>
<text class="mut" x="448" y="186" font-size="13" text-anchor="start">build and take quizzes</text>
<g transform="rotate(0.4 560 302)"><rect class="bx pm" x="430" y="250" width="260" height="104" rx="10"/></g>
<text class="t" x="448" y="282" font-size="20" text-anchor="start">Access Guard</text>
<text class="a-pm" x="448" y="304" font-size="13.5" text-anchor="start">sim_access</text>
<text class="mut" x="448" y="326" font-size="13" text-anchor="start">checks JWT + simulator access</text>
<g transform="rotate(-0.4 560 442)"><rect class="bx pm" x="430" y="390" width="260" height="104" rx="10"/></g>
<text class="t" x="448" y="422" font-size="20" text-anchor="start">Session Engine</text>
<text class="a-pm" x="448" y="444" font-size="13.5" text-anchor="start">sim_sessions</text>
<text class="mut" x="448" y="466" font-size="13" text-anchor="start">builds quiz by subject / state / count</text>
<g transform="rotate(0.4 560 582)"><rect class="bx pm" x="430" y="530" width="260" height="104" rx="10"/></g>
<text class="t" x="448" y="562" font-size="20" text-anchor="start">Answer Grader</text>
<text class="a-pm" x="448" y="584" font-size="13.5" text-anchor="start">sim_session_questions</text>
<text class="mut" x="448" y="606" font-size="13" text-anchor="start">grades answers · timed exam mode</text>
<g transform="rotate(-0.4 560 722)"><rect class="bx pm" x="430" y="670" width="260" height="104" rx="10"/></g>
<text class="t" x="448" y="702" font-size="20" text-anchor="start">SM-2 Spaced Repetition</text>
<text class="a-pm" x="448" y="724" font-size="13.5" text-anchor="start">sim_question_history</text>
<text class="mut" x="448" y="746" font-size="13" text-anchor="start">reschedules failed / pending</text>
<g transform="rotate(0.4 560 862)"><rect class="bx pm" x="430" y="810" width="260" height="104" rx="10"/></g>
<text class="t" x="448" y="842" font-size="20" text-anchor="start">Analytics / Overview</text>
<text class="a-pm" x="448" y="864" font-size="13.5" text-anchor="start">reads history</text>
<text class="mut" x="448" y="886" font-size="13" text-anchor="start">preparation stats per subject</text>
<g transform="rotate(-0.5 185 302)"><rect class="bx dev" x="60" y="250" width="250" height="104" rx="10"/></g>
<text class="t" x="78" y="282" font-size="20" text-anchor="start">Question-bank admin</text>
<text class="a-dev" x="78" y="304" font-size="13.5" text-anchor="start">admin app</text>
<text class="mut" x="78" y="326" font-size="13" text-anchor="start">CRUD + Excel (XLSX) import</text>
<g transform="rotate(0.5 185 442)"><rect class="bx pm" x="60" y="390" width="250" height="104" rx="10"/></g>
<text class="t" x="78" y="422" font-size="20" text-anchor="start">Question Bank</text>
<text class="a-pm" x="78" y="444" font-size="13.5" text-anchor="start">sim_subjects · sim_questions</text>
<text class="mut" x="78" y="466" font-size="13" text-anchor="start">subjects, questions, options</text>
<g transform="rotate(-0.5 185 722)"><rect class="bx dev" x="60" y="670" width="250" height="104" rx="10"/></g>
<text class="t" x="78" y="702" font-size="20" text-anchor="start">DailyChallenge.jsx</text>
<text class="a-dev" x="78" y="724" font-size="13.5" text-anchor="start">React (student)</text>
<text class="mut" x="78" y="746" font-size="13" text-anchor="start">one question a day + streak</text>
<g transform="rotate(0.5 185 862)"><rect class="bx pm" x="60" y="810" width="250" height="104" rx="10"/></g>
<text class="t" x="78" y="842" font-size="20" text-anchor="start">Daily Challenge</text>
<text class="a-pm" x="78" y="864" font-size="13.5" text-anchor="start">sim_daily_attempts</text>
<text class="mut" x="78" y="886" font-size="13" text-anchor="start">daily question + streak logic</text>
<g><rect class="bx abm" x="770" y="390" width="530" height="524" rx="10"/></g>
<text class="t" x="792" y="424" font-size="19" text-anchor="start">MySQL 8 · the sim_* tables</text>
<rect class="bx pm" x="792" y="448" width="230" height="28" rx="6"/>
<text class="mut" x="804" y="467" font-size="13" text-anchor="start">sim_subjects</text>
<rect class="bx pm" x="1042" y="448" width="230" height="28" rx="6"/>
<text class="mut" x="1054" y="467" font-size="13" text-anchor="start">sim_questions</text>
<rect class="bx pm" x="792" y="490" width="230" height="28" rx="6"/>
<text class="mut" x="804" y="509" font-size="13" text-anchor="start">sim_question_options</text>
<rect class="bx pm" x="1042" y="490" width="230" height="28" rx="6"/>
<text class="mut" x="1054" y="509" font-size="13" text-anchor="start">sim_access</text>
<rect class="bx pm" x="792" y="532" width="230" height="28" rx="6"/>
<text class="mut" x="804" y="551" font-size="13" text-anchor="start">sim_sessions</text>
<rect class="bx pm" x="1042" y="532" width="230" height="28" rx="6"/>
<text class="mut" x="1054" y="551" font-size="13" text-anchor="start">sim_session_questions</text>
<rect class="bx pm" x="792" y="574" width="230" height="28" rx="6"/>
<text class="mut" x="804" y="593" font-size="13" text-anchor="start">sim_question_history</text>
<rect class="bx pm" x="1042" y="574" width="230" height="28" rx="6"/>
<text class="mut" x="1054" y="593" font-size="13" text-anchor="start">sim_daily_attempts</text>
<text class="legend" x="792" y="898" font-size="11.5" text-anchor="start">written by the components on the left and center</text>
<path class="flow" d="M560,214 L560,250" marker-end="url(#ah)"/>
<text class="mut sm" x="630.0" y="236.0" font-size="12.5" text-anchor="start">request</text>
<path class="flow" d="M560,354 L560,390" marker-end="url(#ah)"/>
<text class="mut sm" x="630.0" y="376.0" font-size="12.5" text-anchor="start">authorized</text>
<path class="flow" d="M560,494 L560,530" marker-end="url(#ah)"/>
<text class="mut sm" x="630.0" y="516.0" font-size="12.5" text-anchor="start">answers</text>
<path class="flow" d="M560,634 L560,670" marker-end="url(#ah)"/>
<text class="mut sm" x="630.0" y="656.0" font-size="12.5" text-anchor="start">update SM-2</text>
<path class="flow" d="M560,774 L560,810" marker-end="url(#ah)"/>
<text class="mut sm" x="630.0" y="796.0" font-size="12.5" text-anchor="start">stats</text>
<path class="flow" d="M185,354 L185,390" marker-end="url(#ah)"/>
<text class="mut sm" x="255.0" y="376.0" font-size="12.5" text-anchor="start">import</text>
<path class="flow" d="M310,442 L430,442" marker-end="url(#ah)"/>
<text class="mut sm" x="370.0" y="432.0" font-size="12.5" text-anchor="middle">reads Qs</text>
<path class="flow" d="M185,774 L185,810" marker-end="url(#ah)"/>
<text class="mut sm" x="235.0" y="796.0" font-size="12.5" text-anchor="start">play</text>
<path class="flow" d="M690,442 L770,442" marker-end="url(#ah)"/>
<text class="mut sm" x="730.0" y="434.0" font-size="12.5" text-anchor="middle">sessions</text>
<path class="flow" d="M690,582 L770,582" marker-end="url(#ah)"/>
<text class="mut sm" x="730.0" y="574.0" font-size="12.5" text-anchor="middle">answers</text>
<path class="flow" d="M690,722 L770,722" marker-end="url(#ah)"/>
<text class="mut sm" x="730.0" y="714.0" font-size="12.5" text-anchor="middle">history</text>
<path class="flow" d="M770,862 L690,862" marker-end="url(#ah)"/>
<text class="mut sm" x="730.0" y="854.0" font-size="12.5" text-anchor="middle">reads</text>
</svg>